<svg xmlns="http://www.w3.org/2000/svg" viewBox="0 0 451 279.4"><defs><style>.cls-1{fill:#ded0ac;stroke:#a67c52;stroke-miterlimit:10;}</style></defs><g id="Layer_2" data-name="Layer 2"><g id="Layer_1-2" data-name="Layer 1"><path class="cls-1" d="M225.85,140l-.25.16-25.4,15.69C138.75,192.48,58.66,236.84,19.5,261c-15.54,9.6-17.67,16-18,17.53a2.12,2.12,0,0,0,0,.34V.9Z"/><path class="cls-1" d="M226.1,140.15c-8.1,5-16.79,10.26-25.9,15.69l25.4-15.69.25-.16Z"/><path class="cls-1" d="M252.3,155.84c-9-5.37-17.63-10.58-25.65-15.53l-.15.09-.4-.25.15-.09.25-.16.4.25Z"/><polygon class="cls-1" points="226.9 140.15 226.65 140.31 226.5 140.4 226.1 140.15 226.25 140.06 226.5 139.9 226.9 140.15"/><path class="cls-1" d="M226.65,140.31l-.15.09-.4-.25c-8.1,5-16.79,10.26-25.9,15.69l25.4-15.69.25-.16.15-.09.25.16.15.09Z"/><path class="cls-1" d="M450,278.9H.5a2.12,2.12,0,0,1,0-.34c.29-1.51,2.42-7.93,18-17.53,39.16-24.19,119.25-68.55,180.7-105.19,9.11-5.43,17.8-10.69,25.9-15.69l.4.25.15-.09c8,4.95,16.64,10.16,25.65,15.53,61.45,36.64,141.54,81,180.7,105.19,15.54,9.6,17.67,16,18,17.53A2.12,2.12,0,0,1,450,278.9Z"/><path class="cls-1" d="M450.5.9v278H450a2.12,2.12,0,0,0,0-.34c-.29-1.51-2.42-7.93-18-17.53-39.16-24.19-119.25-68.55-180.7-105.19l-25.4-15.69Z"/></g></g></svg>