<?xml version="1.0" encoding="utf-8"?>
<!-- Generator: Adobe Illustrator 24.1.2, SVG Export Plug-In . SVG Version: 6.00 Build 0)  -->
<svg version="1.1" id="Layer_1" xmlns="http://www.w3.org/2000/svg" xmlns:xlink="http://www.w3.org/1999/xlink" x="0px" y="0px"
	 viewBox="0 0 640 480" style="enable-background:new 0 0 640 480;" xml:space="preserve">
<style type="text/css">
	.st0{fill:#0F490F;}
	.st1{fill:#44281E;}
	.st2{fill:#FF9A7B;}
	.st3{fill:#7C4133;}
	.st4{fill:#CE8964;}
	.st5{fill:#370031;}
	.st6{fill:#543122;}
	.st7{fill:#0B0033;stroke:#000000;stroke-miterlimit:10;}
	.st8{fill:#EAF27C;}
	.st9{fill:#FFFFFF;stroke:#000000;stroke-miterlimit:10;}
	.st10{fill:#603813;}
	.st11{fill:#EAF27C;stroke:#000000;stroke-miterlimit:10;}
	.st12{fill:#832232;}
	.st13{fill:#FFBC9F;}
	.st14{fill:#964427;}
	.st15{fill:#337C33;}
	.st16{fill:#D64161;}
	.st17{fill:#0B0033;}
</style>
<path class="st0" d="M109.18,480c-0.62,1.54-1.29,3.05-2,4.55c-0.49-1.5-0.94-3.02-1.33-4.55H109.18z"/>
<path class="st0" d="M275,458c0,7.6-0.99,14.98-2.85,22H109.18c-0.62,1.54-1.29,3.05-2,4.55c-0.49-1.5-0.94-3.02-1.33-4.55
	c-1.86-7.02-2.85-14.4-2.85-22c0-1.42,0.03-2.83,0.1-4.23c0.6-12.46,3.86-24.23,9.22-34.74c9.03-17.75,24.04-31.93,42.38-39.91
	c10.51-4.58,22.11-7.12,34.3-7.12C236.5,372,275,410.5,275,458z"/>
<path class="st0" d="M635,445c0,12.59-2.98,24.48-8.28,35H487.28c-4.03-8-6.72-16.79-7.77-26.08c-0.34-2.93-0.51-5.9-0.51-8.92
	c0-12.14,2.77-23.63,7.72-33.88c8.56-17.71,23.61-31.7,42.08-38.86c5.99-2.33,12.35-3.94,18.96-4.71c3.03-0.37,6.11-0.55,9.24-0.55
	c30.57,0,57.04,17.59,69.82,43.2c2.36,4.71,4.25,9.69,5.6,14.88C634.11,431.44,635,438.12,635,445z"/>
<path class="st0" d="M510,465c0,5.14-0.52,10.15-1.52,15H363.52c-1-4.85-1.52-9.86-1.52-15c0-29.78,17.59-55.46,42.95-67.18
	c9.44-4.38,19.96-6.82,31.05-6.82c19.63,0,37.48,7.64,50.72,20.12c10.09,9.49,17.51,21.79,21.01,35.64
	C509.21,452.6,510,458.71,510,465z"/>
<circle class="st0" cx="78" cy="334" r="47"/>
<rect x="272" y="131" class="st1" width="243" height="17"/>
<rect x="488" y="131" class="st2" width="18.73" height="131.87"/>
<rect x="311.73" y="148.28" class="st2" width="19" height="114.6"/>
<polygon class="st3" points="330.73,148.28 338.93,148.28 338.73,262.87 330.73,262.87 "/>
<polygon class="st3" points="506.19,134 514.38,134 514.19,263.28 506.19,263.28 "/>
<polygon class="st4" points="515,131 425.54,41 184,41 273.46,131 "/>
<polygon class="st5" points="241.34,267 231.04,241.98 259.01,198.33 295.51,183.31 "/>
<polygon class="st6" points="448.74,112.84 405.86,121.38 405.85,121.38 406.57,106.84 "/>
<path class="st7" d="M393.04,173.08c0,27.57-21.58,50.11-48.77,51.64l-0.17,0.01c-0.92,0.05-1.85,0.08-2.79,0.08
	c-2.72,0-5.39-0.21-7.99-0.61c-0.99-0.15-1.97-0.34-2.93-0.54c-16.45-3.54-29.99-14.9-36.54-30l39.04-27.67l39.2-27.79h0.01
	c2.65,0.89,5.49,1.36,8.44,1.36h0.16c6.25,7.33,10.49,16.42,11.86,26.43C392.88,168.3,393.04,170.67,393.04,173.08z"/>
<path class="st8" d="M372.09,138.19l-39.2,27.79l-39.04,27.67l-55.98,39.68h-43.76l43.76-33.03l45.47-34.32l7.92-5.98l51.17-38.62
	l11.38-8.59v0.05c0,3.79,0.79,7.39,2.21,10.65h0.01C359.03,130.4,364.88,135.79,372.09,138.19z"/>
<path class="st7" d="M380.54,86.12c-14.74,0-26.68,11.93-26.71,26.66v0.05c0,3.79,0.79,7.39,2.21,10.65h0.01
	c3,6.91,8.85,12.3,16.06,14.7h0.01c2.65,0.89,5.49,1.36,8.44,1.36h0.16c11.7-0.07,21.61-7.66,25.16-18.17l0.72-14.54
	C403.85,94.97,393.23,86.12,380.54,86.12z M393.22,115.68c-3.21,0-5.82-2.6-5.82-5.82c0-3.22,2.61-5.82,5.82-5.82
	c3.22,0,5.83,2.6,5.83,5.82C399.04,113.08,396.43,115.68,393.22,115.68z"/>
<path class="st9" d="M399.04,109.86c0,3.22-2.61,5.82-5.83,5.82c-3.21,0-5.82-2.6-5.82-5.82c0-3.22,2.61-5.82,5.82-5.82
	C396.43,104.04,399.04,106.64,399.04,109.86z"/>
<polygon class="st10" points="341.32,224.78 366.33,263.17 369.74,263.17 344.27,224.72 "/>
<path class="st9" d="M399.04,109.86c0,3.22-2.61,5.82-5.83,5.82c-3.21,0-5.82-2.6-5.82-5.82c0-3.22,2.61-5.82,5.82-5.82
	C396.43,104.04,399.04,106.64,399.04,109.86z"/>
<polygon class="st7" points="325.36,222.32 349.47,263.62 352.87,263.7 328.31,222.31 "/>
<path class="st11" d="M237.88,200.37"/>
<polygon class="st12" points="273.11,217.91 273.11,186.36 322.63,151.71 368.64,151.71 "/>
<polygon class="st12" points="259.38,180.03 215.42,175.7 217.28,156.78 "/>
<polygon class="st5" points="300.82,205.45 300.82,179.83 341.03,151.69 378.4,151.69 "/>
<polygon class="st4" points="94,131 184,41 427,41 337,131 "/>
<rect x="94" y="131" class="st13" width="243" height="18"/>
<polygon class="st14" points="337,148 427,57 427,41 337,131 "/>
<rect x="298" y="148" class="st2" width="19" height="114.6"/>
<rect x="117" y="148" class="st2" width="19" height="114.6"/>
<polygon class="st3" points="136,148 144.2,148 144,262.6 136,262.6 "/>
<polygon class="st3" points="312.46,148.4 320.65,148.4 320.46,263 312.46,263 "/>
<polygon class="st14" points="515,148.28 427,57.28 427,41.28 515,131.28 "/>
<rect x="288" y="272" class="st12" width="51" height="208"/>
<circle class="st15" cx="108" cy="402" r="52"/>
<path class="st15" d="M116,445c0,2.84-0.13,5.66-0.38,8.44c-0.84,9.32-3.05,18.24-6.44,26.56c-0.62,1.54-1.29,3.05-2,4.55
	c-0.49-1.5-0.94-3.02-1.33-4.55H0V354.87c7.35-1.88,15.06-2.87,23-2.87c4.03,0,8,0.26,11.89,0.76c3.28,0.41,6.5,1,9.65,1.75
	c9.5,2.25,18.43,5.96,26.54,10.87c6.62,4,12.69,8.81,18.09,14.28c10.72,10.85,18.79,24.32,23.15,39.37
	C114.72,427.27,116,435.99,116,445z"/>
<circle class="st15" cx="476" cy="381" r="73"/>
<path class="st15" d="M640,259.31v163.38c-2.47,0.91-5,1.71-7.58,2.39c-7.15,1.91-14.67,2.92-22.42,2.92
	c-9.21,0-18.09-1.43-26.42-4.09c-14.38-4.57-27.13-12.78-37.18-23.55c-7.55-8.08-13.57-17.59-17.6-28.1
	c-3.75-9.7-5.8-20.24-5.8-31.26c0-5.03,0.43-9.97,1.25-14.77C531.26,285.21,566.99,254,610,254C620.54,254,630.65,255.88,640,259.31
	z"/>
<path class="st15" d="M640,412.75V480h-77.16c-0.56-3.25-0.84-6.59-0.84-10c0-18.52,8.39-35.09,21.58-46.09
	C593.99,415.23,607.38,410,622,410c1.62,0,3.23,0.06,4.82,0.2C631.37,410.55,635.79,411.42,640,412.75z"/>
<path class="st15" d="M92,277c0,4.03-0.27,8-0.81,11.88c-3.91,28.71-21.84,52.96-46.65,65.63c-2.31,1.19-4.68,2.27-7.11,3.24
	C27.41,361.78,16.46,364,5,364c-1.68,0-3.34-0.05-5-0.14V190.14c1.66-0.09,3.32-0.14,5-0.14C53.05,190,92,228.95,92,277z"/>
<rect x="288" y="272" class="st16" width="24" height="208"/>
<polygon class="st4" points="483.95,210.96 469.89,213.83 469.88,213.83 470.12,208.95 "/>
<path class="st7" d="M465.68,231.17c0,9.25-7.07,16.81-15.99,17.32l-0.06,0c-0.3,0.02-0.61,0.03-0.91,0.03
	c-0.89,0-1.77-0.07-2.62-0.21c-0.32-0.05-0.64-0.11-0.96-0.18c-5.39-1.19-9.83-5-11.98-10.06l12.8-9.28l12.85-9.32h0
	c0.87,0.3,1.8,0.46,2.77,0.46h0.05c2.05,2.46,3.44,5.51,3.89,8.87C465.63,229.57,465.68,230.36,465.68,231.17z"/>
<path class="st17" d="M458.81,219.46l-12.85,9.32l-12.8,9.28l-18.36,13.31h-14.35l14.35-11.08l14.91-11.51l2.6-2.01l16.78-12.96
	l3.73-2.88v0.02c0,1.27,0.26,2.48,0.72,3.57h0C454.53,216.85,456.45,218.66,458.81,219.46z"/>
<path class="st7" d="M461.58,202c-4.83,0-8.75,4-8.76,8.94v0.02c0,1.27,0.26,2.48,0.72,3.57h0c0.98,2.32,2.9,4.13,5.26,4.93h0
	c0.87,0.3,1.8,0.46,2.77,0.46h0.05c3.84-0.02,7.09-2.57,8.25-6.1l0.24-4.88C469.23,204.97,465.74,202,461.58,202z M465.74,211.91
	c-1.05,0-1.91-0.87-1.91-1.95c0-1.08,0.86-1.95,1.91-1.95c1.05,0,1.91,0.87,1.91,1.95C467.65,211.04,466.8,211.91,465.74,211.91z"/>
<path class="st9" d="M467.65,209.96c0,1.08-0.86,1.95-1.91,1.95c-1.05,0-1.91-0.87-1.91-1.95c0-1.08,0.86-1.95,1.91-1.95
	C466.8,208.01,467.65,208.88,467.65,209.96z"/>
<polygon class="st10" points="448.72,248.51 456.92,261.39 458.04,261.39 449.69,248.49 "/>
<path class="st9" d="M467.65,209.96c0,1.08-0.86,1.95-1.91,1.95c-1.05,0-1.91-0.87-1.91-1.95c0-1.08,0.86-1.95,1.91-1.95
	C466.8,208.01,467.65,208.88,467.65,209.96z"/>
<polygon class="st7" points="443.49,247.69 451.4,261.54 452.51,261.57 444.46,247.69 "/>
<path class="st11" d="M414.8,240.32"/>
<polygon class="st17" points="420.75,254.79 420.75,240.12 443.26,224 464.17,224 "/>
<polygon class="st5" points="425.68,248.96 425.68,237.06 443.93,223.99 460.88,223.99 "/>
<path class="st17" d="M422.41,248.46l-8.98,5.99l-8.94,5.96l-12.82,8.54h-10.02l10.02-7.11l10.41-7.39l1.81-1.29l11.72-8.32
	l2.61-1.85V243c0,0.82,0.18,1.59,0.5,2.29h0C419.43,246.78,420.76,247.94,422.41,248.46z"/>
<rect x="103" y="261" class="st14" width="412" height="11"/>
</svg>
