<svg id="Layer_1" data-name="Layer 1" xmlns="http://www.w3.org/2000/svg" viewBox="0 0 575.75 432.85"><defs><style>.cls-1{fill:#370031;}.cls-2{fill:none;stroke:#370031;stroke-width:7px;}.cls-15,.cls-2,.cls-4,.cls-6,.cls-8{stroke-miterlimit:10;}.cls-15,.cls-3{fill:#ce8964;}.cls-13,.cls-4{fill:#0b0033;}.cls-15,.cls-4,.cls-6,.cls-8{stroke:#000;}.cls-10,.cls-5,.cls-8{fill:#eaf27c;}.cls-6{fill:#fff;}.cls-7{fill:#603813;}.cls-9{fill:#832232;}.cls-10{font-size:16px;font-family:BeVietnamPro-Medium, Be Vietnam Pro;font-weight:500;}.cls-11{letter-spacing:-0.03em;}.cls-12{letter-spacing:-0.01em;}.cls-14{fill:#7f4b00;}</style></defs><polygon class="cls-1" points="65.93 432.85 50.23 394.69 92.89 328.11 148.55 305.21 65.93 432.85"/><path class="cls-2" d="M528.79,124.17A47.38,47.38,0,0,0,536,99.27c0-7.18-1.62-11.38-7.48-31.38-5.16-17.64-7.74-26.47-8.5-31.28-1.41-9-2.08-22.56,2.43-40.48" transform="translate(-27.25 4.73)"/><polygon class="cls-3" points="388.36 182.47 322.95 195.5 322.94 195.5 324.05 173.32 388.36 182.47"/><path class="cls-4" d="M330.65,269.63a78.88,78.88,0,0,1-74.38,78.76H256c-1.4.07-2.82.12-4.24.12a79,79,0,0,1-12.19-.94c-1.51-.23-3-.51-4.48-.82A79.05,79.05,0,0,1,179.37,301l59.54-42.2,59.79-42.39h0a40.59,40.59,0,0,0,12.87,2.08h.24a78.69,78.69,0,0,1,18.83,51.14Z" transform="translate(-27.25 4.73)"/><path class="cls-5" d="M298.7,216.41,238.91,258.8,179.37,301,94,361.52H27.25L94,311.14l69.35-52.34,12.08-9.12,78-58.91,17.37-13.11v.08A40.72,40.72,0,0,0,274.2,194h0A40.84,40.84,0,0,0,298.7,216.41Z" transform="translate(-27.25 4.73)"/><path class="cls-4" d="M311.58,137a40.74,40.74,0,0,0-40.74,40.66v.08A40.72,40.72,0,0,0,274.2,194h0a40.84,40.84,0,0,0,24.49,22.42h0a40.59,40.59,0,0,0,12.87,2.08h.24a40.76,40.76,0,0,0,38.37-27.72l1.1-22.18A40.75,40.75,0,0,0,311.58,137Zm19.34,45.08a8.88,8.88,0,1,1,8.89-8.88A8.88,8.88,0,0,1,330.92,182.08Z" transform="translate(-27.25 4.73)"/><path class="cls-6" d="M339.81,173.2a8.89,8.89,0,1,1-8.89-8.88A8.88,8.88,0,0,1,339.81,173.2Z" transform="translate(-27.25 4.73)"/><polygon class="cls-7" points="224.52 353.21 262.66 411.76 267.86 411.76 229.02 353.11 224.52 353.21"/><path class="cls-6" d="M339.81,173.2a8.89,8.89,0,1,1-8.89-8.88A8.88,8.88,0,0,1,339.81,173.2Z" transform="translate(-27.25 4.73)"/><polygon class="cls-4" points="200.18 349.45 236.95 412.45 242.15 412.56 204.68 349.44 200.18 349.45"/><path class="cls-8" d="M94,311.24" transform="translate(-27.25 4.73)"/><polygon class="cls-9" points="120.5 342.73 120.5 294.62 196.02 241.75 266.19 241.75 120.5 342.73"/><polygon class="cls-9" points="0 287.19 104.74 287.19 83.84 302.97 0 302.97 0 287.19"/><polygon class="cls-9" points="120.49 275.3 104.74 287.19 0 214.29 0 186.81 120.49 275.3"/><rect class="cls-9" x="219.34" y="399.01" width="259.2" height="10.46" transform="translate(708.74 776.88) rotate(174.35)"/><rect class="cls-9" x="438.25" y="159.23" width="118" height="243"/><polygon class="cls-9" points="438.25 160 555.75 160 539.07 124.46 452.16 124.46 438.25 160"/><rect class="cls-4" x="443.25" y="166.23" width="107" height="232"/><text class="cls-10" transform="translate(452.4 187.33)">Ca<tspan class="cls-11" x="22.78" y="0">r</tspan><tspan x="28.7" y="0">d</tspan><tspan class="cls-12" x="39.21" y="0">bo</tspan><tspan x="59.92" y="0">a</tspan><tspan class="cls-11" x="70.27" y="0">r</tspan><tspan x="76.19" y="0">d</tspan></text><rect class="cls-5" x="449.75" y="214.73" width="92" height="176"/><polygon class="cls-13" points="445.75 160.27 549.75 160.27 534.99 124.74 458.06 124.74 445.75 160.27"/><polygon class="cls-9" points="99.56 284.96 32.49 278.36 35.34 249.5 99.56 284.96"/><polygon class="cls-1" points="162.75 323.73 162.75 284.65 224.09 241.73 281.07 241.73 162.75 323.73"/><rect class="cls-14" x="449.75" y="294.73" width="92" height="96"/><rect class="cls-15" x="470.25" y="131.23" width="53.5" height="5"/><polygon class="cls-3" points="324.75 275.49 359.26 282.37 359.26 282.37 358.68 270.66 324.75 275.49"/><path class="cls-4" d="M396.82,319.3a41.64,41.64,0,0,0,39.24,41.59h.14c.74,0,1.49.06,2.24.06a42.69,42.69,0,0,0,6.43-.49c.79-.13,1.58-.27,2.36-.44a41.71,41.71,0,0,0,29.4-24.16l-31.41-22.3-31.54-22.38h0a21.46,21.46,0,0,1-6.79,1.09h-.13a41.6,41.6,0,0,0-9.93,27Z" transform="translate(-27.25 4.73)"/><path class="cls-13" d="M413.68,291.19l31.54,22.38,31.41,22.3,45,32h35.22l-35.22-26.61-36.58-27.65-6.38-4.81-41.17-31.11-9.16-6.93v0a21.56,21.56,0,0,1-1.78,8.58h0A21.6,21.6,0,0,1,413.68,291.19Z" transform="translate(-27.25 4.73)"/><path class="cls-4" d="M406.88,249.25a21.51,21.51,0,0,1,21.5,21.47v0a21.56,21.56,0,0,1-1.78,8.58h0a21.6,21.6,0,0,1-12.92,11.84h0a21.46,21.46,0,0,1-6.79,1.09h-.13a21.49,21.49,0,0,1-20.24-14.63l-.58-11.72A21.51,21.51,0,0,1,406.88,249.25Zm-10.2,23.8a4.69,4.69,0,1,0-4.69-4.68A4.68,4.68,0,0,0,396.68,273.05Z" transform="translate(-27.25 4.73)"/><path class="cls-6" d="M392,268.37a4.69,4.69,0,1,0,4.69-4.69A4.68,4.68,0,0,0,392,268.37Z" transform="translate(-27.25 4.73)"/><polygon class="cls-7" points="411.19 365.67 391.07 396.59 388.32 396.59 408.81 365.62 411.19 365.67"/><path class="cls-6" d="M392,268.37a4.69,4.69,0,1,0,4.69-4.69A4.68,4.68,0,0,0,392,268.37Z" transform="translate(-27.25 4.73)"/><polygon class="cls-4" points="424.04 363.68 404.64 396.96 401.89 397.02 421.66 363.68 424.04 363.68"/><path class="cls-8" d="M521.67,341.27" transform="translate(-27.25 4.73)"/><polygon class="cls-13" points="479.83 380.73 479.83 345.5 424.6 306.8 373.28 306.8 479.83 380.73"/><polygon class="cls-1" points="467.75 366.73 467.75 338.17 422.96 306.79 381.36 306.79 467.75 366.73"/><path class="cls-13" d="M503,360.8l22,14.37L547,389.48,578.41,410H603l-24.59-17.08-25.55-17.75-4.45-3.09-28.75-20-6.4-4.44v0A12.82,12.82,0,0,1,512,353.2h0A14.63,14.63,0,0,1,503,360.8Z" transform="translate(-27.25 4.73)"/></svg>