<?xml version="1.0" encoding="utf-8"?>
<!-- Generator: Adobe Illustrator 24.1.2, SVG Export Plug-In . SVG Version: 6.00 Build 0)  -->
<svg version="1.1" id="Layer_1" xmlns="http://www.w3.org/2000/svg" xmlns:xlink="http://www.w3.org/1999/xlink" x="0px" y="0px"
	 viewBox="0 0 300 600" style="enable-background:new 0 0 300 600;" xml:space="preserve">
<style type="text/css">
	.st0{fill:none;}
	.st1{font-family:'BeVietnamPro-ExtraBold';}
	.st2{font-size:36px;}
	.st3{fill:#EAF27C;}
	.st4{fill:#CE8964;}
	.st5{fill:#832232;}
	.st6{fill:#1A153D;}
	.st7{fill:#370031;}
</style>
<rect x="95.33" y="532.44" class="st0" width="181.76" height="43.63"/>
<text transform="matrix(1 0 0 1 95.3337 559.8007)" class="st1 st2">#EAF27C</text>
<rect x="95.33" y="429.44" class="st0" width="181.76" height="43.63"/>
<text transform="matrix(1 0 0 1 95.334 456.8006)" class="st1 st2">#CE896</text>
<rect x="95.33" y="326.44" class="st0" width="181.76" height="43.63"/>
<text transform="matrix(1 0 0 1 95.3339 353.8006)" class="st1 st2">#832232</text>
<rect x="95.33" y="225.44" class="st0" width="181.76" height="43.63"/>
<text transform="matrix(1 0 0 1 95.3338 252.8005)" class="st1 st2">#370031</text>
<rect x="95.24" y="121.37" class="st0" width="181.76" height="43.63"/>
<text transform="matrix(1 0 0 1 95.2368 148.7285)" class="st1 st2">#0b0033</text>
<rect x="24.13" y="13.92" class="st0" width="267.11" height="69.74"/>
<text transform="matrix(1 0 0 1 24.1313 41.2808)" class="st1 st2">Color scheme</text>
<circle class="st3" cx="48.84" cy="540.26" r="37.74"/>
<circle class="st4" cx="48.85" cy="434.91" r="37.74"/>
<circle class="st5" cx="48.85" cy="330.07" r="37.74"/>
<circle class="st6" cx="49.1" cy="121.07" r="37.74"/>
<circle class="st7" cx="49.1" cy="225.65" r="37.74"/>
</svg>
