<?xml version="1.0" encoding="utf-8"?>
<!-- Generator: Adobe Illustrator 24.1.2, SVG Export Plug-In . SVG Version: 6.00 Build 0)  -->
<svg version="1.1" id="Layer_1" xmlns="http://www.w3.org/2000/svg" xmlns:xlink="http://www.w3.org/1999/xlink" x="0px" y="0px"
	 viewBox="0 0 640 480" style="enable-background:new 0 0 640 480;" xml:space="preserve">
<style type="text/css">
	.st0{fill:#EAF27C;}
	.st1{fill:#832232;}
	.st2{fill:#0B0033;}
	.st3{fill:#CE8964;}
	.st4{fill:#0B0033;stroke:#000000;stroke-miterlimit:10;}
	.st5{fill:#FFFFFF;stroke:#000000;stroke-miterlimit:10;}
	.st6{fill:#603813;}
	.st7{fill:#EAF27C;stroke:#000000;stroke-miterlimit:10;}
	.st8{fill:#370031;}
	.st9{font-family:'BeVietnamPro-BoldItalic';}
	.st10{font-size:86.6383px;}
</style>
<path class="st0" d="M552.5,236.27c0,57.48-21.64,109.91-57.22,149.59c-41.04,45.76-100.62,74.56-166.93,74.56
	c-50.42,0-96.94-16.64-134.39-44.74c-54.51-40.88-89.77-106.03-89.77-179.41c0-123.8,100.36-224.16,224.16-224.16
	C452.14,12.11,552.5,112.47,552.5,236.27z"/>
<polygon class="st1" points="27.25,282.46 131.99,282.46 111.09,298.24 27.25,298.24 "/>
<polygon class="st1" points="147.74,270.57 131.99,282.46 27.25,209.56 27.25,182.08 "/>
<polygon class="st1" points="79.8,264.23 12.74,257.63 15.58,228.77 "/>
<polygon class="st2" points="88.71,316.78 110.77,275.28 200.13,264.31 260.65,296.48 "/>
<polygon class="st2" points="93.17,428.12 77.47,389.96 120.13,323.38 175.8,300.48 "/>
<polygon class="st3" points="415.61,177.74 350.2,190.77 350.19,190.77 351.29,168.59 "/>
<path class="st4" d="M330.65,269.63c0,42.05-32.91,76.42-74.38,78.76l-0.26,0.01c-1.4,0.08-2.83,0.12-4.25,0.12
	c-4.14,0-8.22-0.32-12.19-0.94c-1.51-0.23-3-0.51-4.47-0.82c-25.09-5.4-45.74-22.73-55.73-45.75l59.54-42.21l59.79-42.39h0.01
	c4.05,1.35,8.37,2.08,12.87,2.08h0.24c9.54,11.18,15.99,25.04,18.09,40.31C330.4,262.33,330.65,265.96,330.65,269.63z"/>
<path class="st4" d="M311.58,137c-22.48,0-40.7,18.2-40.74,40.66v0.08c0,5.77,1.2,11.27,3.36,16.25h0.01
	c4.58,10.54,13.5,18.76,24.49,22.42h0.01c4.05,1.35,8.37,2.08,12.87,2.08h0.24c17.84-0.1,32.97-11.68,38.37-27.71l1.1-22.18
	C347.14,150.5,330.94,137,311.58,137z M330.92,182.08c-4.9,0-8.88-3.97-8.88-8.88c0-4.91,3.98-8.88,8.88-8.88
	c4.91,0,8.89,3.97,8.89,8.88C339.81,178.11,335.83,182.08,330.92,182.08z"/>
<path class="st5" d="M339.81,173.2c0,4.91-3.98,8.88-8.89,8.88c-4.9,0-8.88-3.97-8.88-8.88c0-4.91,3.98-8.88,8.88-8.88
	C335.83,164.32,339.81,168.29,339.81,173.2z"/>
<polygon class="st6" points="251.77,348.49 289.91,407.03 295.11,407.03 256.27,348.39 "/>
<path class="st5" d="M339.81,173.2c0,4.91-3.98,8.88-8.89,8.88c-4.9,0-8.88-3.97-8.88-8.88c0-4.91,3.98-8.88,8.88-8.88
	C335.83,164.32,339.81,168.29,339.81,173.2z"/>
<polygon class="st4" points="227.42,344.72 264.19,407.72 269.39,407.84 231.93,344.72 "/>
<path class="st7" d="M94,311.24"/>
<polygon class="st1" points="147.74,338 147.74,289.89 223.26,237.03 293.44,237.03 "/>
<path class="st1" d="M495.28,385.86c-41.04,45.76-100.62,74.56-166.93,74.56c-50.42,0-96.94-16.64-134.39-44.74L495.28,385.86z"/>
<polygon class="st2" points="190,319 190,279.93 251.33,237 308.32,237 "/>
<polygon class="st3" points="352,272.77 386.51,279.65 386.51,279.65 385.93,267.93 "/>
<path class="st4" d="M396.82,321.3c0,22.21,17.36,40.36,39.24,41.59l0.14,0c0.74,0.04,1.49,0.06,2.24,0.06
	c2.19,0,4.34-0.17,6.43-0.49c0.8-0.12,1.58-0.27,2.36-0.43c13.24-2.85,24.13-12,29.4-24.16l-31.41-22.29l-31.54-22.39h0
	c-2.14,0.71-4.42,1.1-6.79,1.1h-0.13c-5.03,5.91-8.44,13.23-9.54,21.29C396.95,317.44,396.82,319.36,396.82,321.3z"/>
<path class="st2" d="M427.75,328.57l36.42,13.04l36.26,12.98l52,18.61l33.91-9.51l-41.09-16.11l-42.69-16.73l-7.44-2.92
	l-48.05-18.83l-10.69-4.19l0.01,0.04c0.82,2.94,1,5.9,0.61,8.74l0,0C436.17,319.7,432.81,325.15,427.75,328.57z"/>
<path class="st4" d="M406.88,251.25c11.86,0,21.47,9.61,21.5,21.48v0.04c0,3.05-0.64,5.95-1.77,8.58h0
	c-2.41,5.57-7.12,9.91-12.92,11.84h0c-2.14,0.71-4.42,1.1-6.79,1.1h-0.13c-9.41-0.05-17.39-6.17-20.24-14.64l-0.58-11.72
	C388.12,258.38,396.67,251.25,406.88,251.25z M396.68,275.05c2.58,0,4.68-2.1,4.68-4.69c0-2.59-2.1-4.69-4.68-4.69
	c-2.59,0-4.69,2.1-4.69,4.69C391.99,272.96,394.09,275.05,396.68,275.05z"/>
<path class="st5" d="M391.99,268.37c0,2.59,2.1,4.69,4.69,4.69c2.58,0,4.68-2.1,4.68-4.69c0-2.59-2.1-4.69-4.68-4.69
	C394.09,263.68,391.99,265.78,391.99,268.37z"/>
<polygon class="st6" points="438.44,362.94 418.31,393.86 415.57,393.86 436.06,362.89 "/>
<path class="st5" d="M391.99,269.37c0,2.59,2.1,4.69,4.69,4.69c2.58,0,4.68-2.1,4.68-4.69c0-2.59-2.1-4.69-4.68-4.69
	C394.09,264.68,391.99,266.78,391.99,269.37z"/>
<polygon class="st4" points="451.28,358.96 431.88,392.23 429.14,392.29 448.9,358.95 "/>
<path class="st7" d="M521.67,341.27"/>
<polygon class="st2" points="507.08,376 507.08,340.78 451.85,302.08 400.53,302.08 "/>
<polygon class="st8" points="494.99,362 494.99,333.44 450.21,302.06 408.6,302.06 "/>
<path class="st2" d="M502,359.8l22.03,14.37l21.93,14.31L577.41,409H602l-24.59-17.08l-25.55-17.75l-4.45-3.09l-28.75-19.97
	l-6.4-4.44v0.03c0,1.96-0.44,3.82-1.24,5.51h0C509.34,355.77,506.05,358.56,502,359.8z"/>
<polygon class="st1" points="154.62,286.53 160.06,305.49 54.42,377.07 28.77,367.21 "/>
<text transform="matrix(1 0 0 1 5.2227 88.624)" class="st2 st9 st10">The bird game</text>
</svg>
